<svg xmlns="http://www.w3.org/2000/svg" viewBox="0 0 512 512" id="farmer"><path d="m286.6 215.35-3.86-1.06a30 30 0 0 1-36.88 21l-1.06 3.86a34 34 0 0 0 41.8-23.76zm-30.85-3.85h.5a7 7 0 0 0 7-7V188a7 7 0 0 0-7-7h-.5a7 7 0 0 0-7 7v16.5a7 7 0 0 0 7 7zm-3-23.5a3 3 0 0 1 3-3h.5a3 3 0 0 1 3 3v16.5a3 3 0 0 1-3 3h-.5a3 3 0 0 1-3-3z"></path><circle cx="227.56" cy="168.5" r="5.41"></circle><circle cx="284.44" cy="168.5" r="5.41"></circle><path d="M427.16 259.82h-71.54a10.56 10.56 0 0 0-10.55 10.55v46.81L280.9 293a2 2 0 0 0-.23-.27v-28.48a27.79 27.79 0 0 0 26.38-23.94l7.6-56h3.78a14 14 0 0 0 14-14v-8.01a13.92 13.92 0 0 0-4.57-10.3h68.76a2 2 0 0 0 2-2 21.37 21.37 0 0 0-21.34-21.35H323.7l-17.83-75.94a2 2 0 0 0-1.95-1.54h-95.84a2 2 0 0 0-2 1.54l-17.78 75.94h-53.55A21.37 21.37 0 0 0 113.41 150a2 2 0 0 0 2 2h68.09a13.92 13.92 0 0 0-4.57 10.3v8.06a14 14 0 0 0 14 14h4.45l7.59 55.91a27.79 27.79 0 0 0 26.39 23.93v28.6a.27.27 0 0 1-.07.08l-34.69 13.05c.23-.78.44-1.57.63-2.36l.41-1.66-1.58-.66a52.09 52.09 0 0 0-66.85 24.94v-41.45a42.59 42.59 0 0 0 55.12-30.28l.4-1.65-1.57-.66a42.56 42.56 0 0 0-53.95 19v-34.37a31.46 31.46 0 0 0 40-22.6l.4-1.66-1.58-.66a31.47 31.47 0 0 0-40.84 16 31.45 31.45 0 0 0-40.84-16l-1.57.66.4 1.66a31.38 31.38 0 0 0 40 22.6v34.41a42.54 42.54 0 0 0-53.94-19l-1.58.66.41 1.65a42.52 42.52 0 0 0 55.11 30.28v41.49a52 52 0 0 0-66.84-25l-1.58.66.4 1.66a52 52 0 0 0 68 36.8v10.87a32.25 32.25 0 0 0-.21 3.56v67.53h229.54a10.55 10.55 0 0 0 1.13.07h71.54a10.56 10.56 0 0 0 10.55-10.55v-141.5a10.56 10.56 0 0 0-10.55-10.55ZM209.67 55.17h92.66l12.28 52.3H197.39Zm-13.22 56.3h119.1l3.93 16.7h-127Zm-47.8 145.82A38.51 38.51 0 0 1 180 255.2a38.61 38.61 0 0 1-50.38 25.45 38.65 38.65 0 0 1 19.03-23.36Zm-55.17 21.26a38.65 38.65 0 0 1-19-23.35 38.59 38.59 0 0 1 50.39 25.45 38.47 38.47 0 0 1-31.39-2.1Zm-8.11 55.27a48.18 48.18 0 0 1-23.85-29.52 48.1 48.1 0 0 1 63.31 32 48 48 0 0 1-39.46-2.48Zm270.25-70h71.54a6.56 6.56 0 0 1 6.55 6.55v9.42h-84.64v-9.42a6.56 6.56 0 0 1 6.55-6.55Zm78.09 20v113.54h-84.64V283.79Zm-86.39 134.51H258v-97.21l21.91 15.65 13.85-34.62 51.31 19.3v90.4a10.48 10.48 0 0 0 2.25 6.48Zm-115-121.6 17.68 18.4a8.31 8.31 0 0 0 2.78 1.92l-18.91 13.51-12-29.92Zm3-2.62v-29.9c12.88 0 28.46.06 41.34.06v29.84l-17.59 18.25a4.23 4.23 0 0 1-6.16 0Zm44.28 2.71 10.4 3.92-11.93 29.82-18.91-13.51a8.31 8.31 0 0 0 2.78-1.92Zm48.8-134.52v8.06a10 10 0 0 1-10 10h-3.24l3.8-28a10 10 0 0 1 9.44 9.94ZM117.52 148a17.38 17.38 0 0 1 17.23-15.35h242.5A17.38 17.38 0 0 1 394.48 148Zm75.38 32.33a10 10 0 0 1-10-10v-8.03a10 10 0 0 1 10-10v-.3h.1l3.85 28.33Zm16 59.37L197 152h118l-11.91 87.77a23.76 23.76 0 0 1-23.46 20.5c-14.41 0-33 0-47.32-.07a23.78 23.78 0 0 1-23.41-20.5Zm-79 95.5a48.09 48.09 0 0 1 63-30.9l-.16.55c-.29 1-.62 1.94-1 2.9l-46.34 17.49a31.46 31.46 0 0 0-14.68 11.45l-1.16-.41c.14-.37.25-.73.36-1.08ZM143 216.59a27.4 27.4 0 0 1 21.83-1.67 27.49 27.49 0 0 1-35.24 17.81A27.53 27.53 0 0 1 143 216.59Zm-40 14.47a27.53 27.53 0 0 1-13.41-16.14 27.49 27.49 0 0 1 35.24 17.81 27.4 27.4 0 0 1-21.83-1.67Zm26 165.16h.21v-44.67A27.76 27.76 0 0 1 146.85 329l71.35-26.92 13.89 34.71L254 321.12v97.21H129Zm298.16 22.18H358v-.07h-3.22a6.55 6.55 0 0 1-5.69-6.48v-10.49h84.64v10.49a6.56 6.56 0 0 1-6.57 6.55Z"></path><path d="m371.41 352.83 2.77 3a31.81 31.81 0 0 1 34.43 0l2.76-3a35.77 35.77 0 0 0-40 0Z"></path><path d="m364.5 345.41 2.73 2.93a37.83 37.83 0 0 1 48.32 0l2.73-2.93a41.82 41.82 0 0 0-53.78 0Z"></path><path d="M360.55 341.16a43.91 43.91 0 0 1 61.69 0l2.72-2.92a47.87 47.87 0 0 0-67.13 0Z"></path></svg>